<svg width="38" height="38" viewBox="0 0 38 38" fill="none" xmlns="http://www.w3.org/2000/svg">
<path d="M18.7916 35.875C21.0354 35.8778 23.2577 35.4371 25.3307 34.5784C27.4037 33.7197 29.2866 32.4599 30.8712 30.8713C32.4598 29.2867 33.7197 27.4038 34.5784 25.3307C35.4371 23.2577 35.8777 21.0355 35.8749 18.7917C35.8777 16.5478 35.4371 14.3256 34.5784 12.2526C33.7197 10.1796 32.4598 8.29666 30.8712 6.71203C29.2866 5.12342 27.4037 3.86358 25.3307 3.00488C23.2577 2.14618 21.0354 1.70556 18.7916 1.70833C16.5478 1.70556 14.3255 2.14618 12.2525 3.00488C10.1795 3.86358 8.2966 5.12342 6.71197 6.71203C5.12336 8.29666 3.86351 10.1796 3.00482 12.2526C2.14612 14.3256 1.7055 16.5478 1.70826 18.7917C1.7055 21.0355 2.14612 23.2577 3.00482 25.3307C3.86351 27.4038 5.12336 29.2867 6.71197 30.8713C8.2966 32.4599 10.1795 33.7197 12.2525 34.5784C14.3255 35.4371 16.5478 35.8778 18.7916 35.875Z" stroke="white" stroke-width="3.41667" stroke-linejoin="round"/>
<path d="M11.9583 18.7916L17.0833 23.9166L27.3333 13.6666" stroke="white" stroke-width="3.41667" stroke-linecap="round" stroke-linejoin="round"/>
</svg>
