<svg width="35" height="43" viewBox="0 0 35 43" fill="none" xmlns="http://www.w3.org/2000/svg">
<path d="M11.625 23.25H23.25M11.625 31H17.4375M1.9375 5.8125V36.8125C1.9375 37.8402 2.34576 38.8258 3.07246 39.5525C3.79916 40.2792 4.78479 40.6875 5.8125 40.6875H29.0625C30.0902 40.6875 31.0758 40.2792 31.8025 39.5525C32.5292 38.8258 32.9375 37.8402 32.9375 36.8125V14.2251C32.9374 13.7089 32.8342 13.1979 32.6339 12.7221C32.4336 12.2463 32.1403 11.8153 31.7711 11.4545L23.1686 3.04187C22.4447 2.33402 21.4725 1.93763 20.46 1.9375H5.8125C4.78479 1.9375 3.79916 2.34576 3.07246 3.07246C2.34576 3.79916 1.9375 4.78479 1.9375 5.8125Z" stroke="#82DDFF" stroke-width="3.875" stroke-linecap="round" stroke-linejoin="round"/>
<path d="M21.3125 1.9375V9.6875C21.3125 10.7152 21.7208 11.7008 22.4475 12.4275C23.1742 13.1542 24.1598 13.5625 25.1875 13.5625H32.9375" stroke="#82DDFF" stroke-width="3.875" stroke-linejoin="round"/>
</svg>
