<svg width="70" height="65" viewBox="0 0 70 65" fill="none" xmlns="http://www.w3.org/2000/svg">
<path d="M35.35 54.425L35 54.775L34.615 54.425C17.99 39.34 7 29.365 7 19.25C7 12.25 12.25 7 19.25 7C24.64 7 29.89 10.5 31.745 15.26H38.255C40.11 10.5 45.36 7 50.75 7C57.75 7 63 12.25 63 19.25C63 29.365 52.01 39.34 35.35 54.425ZM50.75 0C44.66 0 38.815 2.835 35 7.28C31.185 2.835 25.34 0 19.25 0C8.47 0 0 8.435 0 19.25C0 32.445 11.9 43.26 29.925 59.605L35 64.225L40.075 59.605C58.1 43.26 70 32.445 70 19.25C70 8.435 61.53 0 50.75 0Z" fill="#82DDFF"/>
</svg>
