<svg width="262" height="54" viewBox="0 0 262 54" fill="none" xmlns="http://www.w3.org/2000/svg">
<path d="M259.595 18.3454C259.83 18.8659 259.517 19.4521 258.968 19.6076L257.247 20.0945C256.748 20.236 256.229 19.9666 255.975 19.5133C255.8 19.2004 255.594 18.8922 255.358 18.589C254.926 18.0094 254.335 17.5321 253.585 17.1571C252.835 16.7821 251.875 16.5946 250.705 16.5946C249.102 16.5946 247.767 16.964 246.699 17.7026C245.642 18.4299 245.114 19.356 245.114 20.481C245.114 21.481 245.477 22.2708 246.205 22.8503C246.932 23.4299 248.068 23.9128 249.614 24.2992L253.5 25.2537C255.841 25.8219 257.585 26.6912 258.733 27.8617C259.881 29.0208 260.455 30.5151 260.455 32.3446C260.455 33.8446 260.023 35.1856 259.159 36.3674C258.307 37.5492 257.114 38.481 255.58 39.1628C254.045 39.8446 252.261 40.1856 250.227 40.1856C247.557 40.1856 245.347 39.606 243.597 38.4469C242.099 37.4551 241.072 36.0722 240.515 34.2983C240.354 33.7858 240.685 33.2644 241.206 33.1341L243.128 32.6535C243.661 32.5203 244.192 32.8469 244.403 33.3541C244.798 34.3024 245.381 35.0455 246.153 35.5833C247.176 36.2878 248.511 36.6401 250.159 36.6401C252.034 36.6401 253.523 36.2424 254.625 35.4469C255.739 34.6401 256.295 33.6742 256.295 32.5492C256.295 31.6401 255.977 30.8787 255.341 30.2651C254.705 29.6401 253.727 29.1742 252.409 28.8674L248.045 27.8446C245.648 27.2765 243.886 26.3958 242.761 25.2026C241.648 23.9981 241.091 22.4924 241.091 20.6856C241.091 19.2083 241.506 17.9015 242.335 16.7651C243.176 15.6287 244.318 14.7367 245.761 14.089C247.216 13.4412 248.864 13.1174 250.705 13.1174C253.295 13.1174 255.33 13.6856 256.807 14.8219C258.026 15.7525 258.955 16.927 259.595 18.3454Z" fill="#0F0020"/>
<path d="M217.376 23.8901V38.6401C217.376 39.1924 216.929 39.6401 216.376 39.6401H214.354C213.801 39.6401 213.354 39.1924 213.354 38.6401V14.4583C213.354 13.906 213.801 13.4583 214.354 13.4583H216.24C216.792 13.4583 217.24 13.906 217.24 14.4583V17.3413C217.24 17.4561 217.333 17.5492 217.448 17.5492C217.529 17.5492 217.603 17.5019 217.638 17.4289C218.251 16.1551 219.164 15.127 220.376 14.3446C221.626 13.5265 223.24 13.1174 225.217 13.1174C226.99 13.1174 228.541 13.481 229.871 14.2083C231.2 14.9242 232.234 16.0151 232.973 17.481C233.712 18.9356 234.081 20.7765 234.081 23.0037V38.6401C234.081 39.1924 233.633 39.6401 233.081 39.6401H231.058C230.506 39.6401 230.058 39.1924 230.058 38.6401V23.2765C230.058 21.2196 229.524 19.6174 228.456 18.4696C227.388 17.3106 225.922 16.731 224.058 16.731C222.774 16.731 221.626 17.0094 220.615 17.5662C219.615 18.1231 218.825 18.9356 218.246 20.0037C217.666 21.0719 217.376 22.3674 217.376 23.8901Z" fill="#0F0020"/>
<path d="M194.011 40.2537C192.352 40.2537 190.847 39.9412 189.494 39.3162C188.142 38.6799 187.068 37.7651 186.273 36.5719C185.477 35.3674 185.08 33.9128 185.08 32.2083C185.08 30.7083 185.375 29.4924 185.966 28.5606C186.557 27.6174 187.347 26.8787 188.335 26.3446C189.324 25.8106 190.415 25.4128 191.608 25.1515C192.812 24.8787 194.023 24.6628 195.239 24.5037C196.83 24.2992 198.119 24.1458 199.108 24.0435C200.108 23.9299 200.835 23.7424 201.29 23.481C201.756 23.2196 201.989 22.7651 201.989 22.1174V21.981C201.989 20.2992 201.528 18.9924 200.608 18.0606C199.699 17.1287 198.318 16.6628 196.466 16.6628C194.545 16.6628 193.04 17.0833 191.949 17.9242C191.165 18.5286 190.548 19.1623 190.099 19.8254C189.809 20.2532 189.275 20.4844 188.789 20.3105L186.831 19.6116C186.288 19.4176 186.017 18.8028 186.291 18.2953C186.904 17.1566 187.66 16.2375 188.557 15.5378C189.705 14.6401 190.955 14.0151 192.307 13.6628C193.67 13.2992 195.011 13.1174 196.33 13.1174C197.17 13.1174 198.136 13.2196 199.227 13.4242C200.33 13.6174 201.392 14.0208 202.415 14.6344C203.449 15.2481 204.307 16.1742 204.989 17.4128C205.67 18.6515 206.011 20.3106 206.011 22.3901V38.6401C206.011 39.1924 205.564 39.6401 205.011 39.6401H202.989C202.436 39.6401 201.989 39.1924 201.989 38.6401V36.2202C201.989 36.1509 201.932 36.0946 201.863 36.0946C201.815 36.0946 201.771 36.1223 201.749 36.1655C201.473 36.7133 201.03 37.2976 200.42 37.9185C199.784 38.5662 198.937 39.1174 197.881 39.5719C196.824 40.0265 195.534 40.2537 194.011 40.2537ZM194.625 36.6401C196.216 36.6401 197.557 36.3276 198.648 35.7026C199.75 35.0776 200.58 34.2708 201.136 33.2821C201.705 32.2935 201.989 31.2537 201.989 30.1628V27.7537C201.989 27.3228 201.277 26.9219 200.864 27.0435C200.295 27.2026 199.636 27.3446 198.886 27.4696C198.148 27.5833 197.426 27.6856 196.722 27.7765C196.028 27.856 195.466 27.9242 195.034 27.981C193.989 28.1174 193.011 28.339 192.102 28.6458C191.205 28.9412 190.477 29.3901 189.92 29.9924C189.375 30.5833 189.102 31.3901 189.102 32.4128C189.102 33.8106 189.619 34.8674 190.653 35.5833C191.699 36.2878 193.023 36.6401 194.625 36.6401Z" fill="#0F0020"/>
<path d="M169.447 39.64C168.895 39.64 168.447 39.1923 168.447 38.64V14.4582C168.447 13.9059 168.895 13.4582 169.447 13.4582H171.334C171.886 13.4582 172.334 13.9059 172.334 14.4582V17.2521C172.334 17.3408 172.406 17.4128 172.494 17.4128C172.562 17.4128 172.622 17.3707 172.646 17.308C173.131 16.0605 173.981 15.0443 175.197 14.2594C176.447 13.4525 177.857 13.0491 179.425 13.0491C179.72 13.0491 180.089 13.0548 180.533 13.0662C180.567 13.0671 180.601 13.068 180.635 13.069C181.148 13.0837 181.538 13.5086 181.538 14.0223V16.258C181.538 16.7407 181.079 17.1215 180.601 17.0548C180.124 16.9753 179.618 16.9355 179.084 16.9355C177.811 16.9355 176.675 17.2025 175.675 17.7366C174.686 18.2594 173.902 18.9866 173.322 19.9185C172.754 20.8389 172.47 21.89 172.47 23.0719V38.64C172.47 39.1923 172.022 39.64 171.47 39.64H169.447Z" fill="#0F0020"/>
<path d="M255.254 4.73101C255.806 4.73101 256.254 5.17873 256.254 5.73101V7.48101C256.254 8.0333 255.806 8.48101 255.254 8.48101H253V11.4808C253 12.3327 253.997 12.7944 254.647 12.2434L260.413 7.35331C260.863 6.97118 260.886 6.28379 260.462 5.8726L254.696 0.283926C254.062 -0.330906 253 0.118584 253 1.00198V4.73101H255.254Z" fill="#57DDFF"/>
<path d="M255.254 8.48101C255.806 8.48101 256.254 8.0333 256.254 7.48101V5.73101C256.254 5.17873 255.806 4.73101 255.254 4.73101H253V8.48101H255.254Z" fill="#57DDFF"/>
<path fill-rule="evenodd" clip-rule="evenodd" d="M136.516 8.48101C135.833 8.48101 135.351 7.81196 135.567 7.16435L136.152 5.41435C136.288 5.00623 136.67 4.73101 137.1 4.73101H253V8.48101H153.956H149.729H136.516Z" fill="#57DDFF"/>
<path d="M152.956 39.6401C153.509 39.6401 153.956 39.1924 153.956 38.6401V8.48101H149.729V38.6401C149.729 39.1924 150.177 39.6401 150.729 39.6401H152.956Z" fill="#57DDFF"/>
<path d="M118.136 49.5542C117.455 49.5542 115.896 49.6565 115.362 49.5428C115.119 49.4962 114.909 49.4496 114.734 49.4029C114.425 49.3206 114.223 49.0493 114.171 48.7337L113.768 46.3177C113.759 46.2633 113.749 46.2029 113.788 46.1634C114.191 45.7496 118.107 45.8689 118.818 45.8042C119.568 45.736 120.233 45.4008 120.813 44.7985C121.403 44.2076 121.943 43.2474 122.432 41.9178L123.055 40.2172C123.137 39.9946 123.137 39.7502 123.055 39.5277L113.995 14.8995C113.755 14.2467 114.238 13.5542 114.933 13.5542H117.152C117.578 13.5542 117.957 13.8242 118.097 14.2269L125.047 34.2905C125.073 34.3667 125.145 34.4178 125.226 34.4178C125.308 34.4178 125.381 34.3647 125.406 34.2864L134.668 5.43041C134.801 5.01666 135.185 4.73602 135.62 4.73602H137.851C138.538 4.73602 139.02 5.41313 138.796 6.06262L125.841 43.5542C125.341 44.9065 124.722 46.0258 123.983 46.9122C123.244 47.8099 122.386 48.4747 121.409 48.9065C120.443 49.3383 119.352 49.5542 118.136 49.5542Z" fill="#57DDFF"/>
<path d="M107.174 17.9079L107.025 11.35L95.5647 15.8896C95.3741 15.9651 95.2489 16.1494 95.2489 16.3544L95.2489 23.1445C95.2489 23.5123 95.6327 23.7542 95.9646 23.5955L106.89 18.3704C107.068 18.2855 107.179 18.1046 107.174 17.9079Z" fill="black"/>
<path d="M107.025 11.35L104.187 9.69119C104.054 9.61347 103.893 9.60137 103.75 9.65839L92.5997 14.1024C92.4057 14.1797 92.2802 14.3694 92.285 14.5782L92.4603 22.2889M107.025 11.35L107.174 17.9079C107.179 18.1046 107.068 18.2855 106.89 18.3704L95.9646 23.5955C95.6327 23.7542 95.2489 23.5123 95.2489 23.1445L95.2489 16.3544C95.2489 16.1494 95.3741 15.9651 95.5647 15.8896L107.025 11.35Z" stroke="black" stroke-width="0.771177" stroke-linecap="round"/>
<path d="M90.1818 39.6401C89.6295 39.6401 89.1818 39.1924 89.1818 38.6401V5.73102C89.1818 5.17873 89.6295 4.73102 90.1818 4.73102H92.2046C92.7568 4.73102 93.2046 5.17873 93.2046 5.73102V38.6401C93.2046 39.1924 92.7568 39.6401 92.2046 39.6401H90.1818Z" fill="#0F0020"/>
<path d="M92.3072 32.2131L92.458 25.5814L103.455 32.3233C103.595 32.4094 103.68 32.5636 103.676 32.7283L103.525 39.3533C103.517 39.7216 103.102 39.9329 102.799 39.7233L92.5065 32.6042C92.3785 32.5157 92.3036 32.3687 92.3072 32.2131Z" fill="black"/>
<path d="M92.458 25.5814L95.2669 23.9397C95.4146 23.8534 95.5978 23.8556 95.7434 23.9454L106.428 30.5394C106.568 30.6256 106.651 30.7795 106.648 30.9436L106.47 38.7365M92.458 25.5814L92.3072 32.2131C92.3036 32.3687 92.3785 32.5157 92.5065 32.6042L102.799 39.7233C103.102 39.9329 103.517 39.7216 103.525 39.3533L103.676 32.7283C103.68 32.5636 103.595 32.4094 103.455 32.3233L92.458 25.5814Z" stroke="black" stroke-width="0.771177" stroke-linecap="round"/>
<path d="M71.1775 40.1856C68.8139 40.1856 66.74 39.6231 64.9559 38.4981C63.1832 37.3731 61.7969 35.7992 60.7969 33.7765C59.8082 31.7537 59.3139 29.3901 59.3139 26.6856C59.3139 23.9583 59.8082 21.5776 60.7969 19.5435C61.7969 17.5094 63.1832 15.9299 64.9559 14.8049C66.74 13.6799 68.8139 13.1174 71.1775 13.1174C73.5412 13.1174 75.6094 13.6799 77.3821 14.8049C79.1662 15.9299 80.5525 17.5094 81.5412 19.5435C82.5412 21.5776 83.0412 23.9583 83.0412 26.6856C83.0412 29.3901 82.5412 31.7537 81.5412 33.7765C80.5525 35.7992 79.1662 37.3731 77.3821 38.4981C75.6094 39.6231 73.5412 40.1856 71.1775 40.1856ZM71.1775 36.5719C72.973 36.5719 74.4503 36.1117 75.6094 35.1912C76.7685 34.2708 77.6264 33.0606 78.1832 31.5606C78.74 30.0606 79.0184 28.4356 79.0184 26.6856C79.0184 24.9356 78.74 23.3049 78.1832 21.7935C77.6264 20.2821 76.7685 19.0606 75.6094 18.1287C74.4503 17.1969 72.973 16.731 71.1775 16.731C69.3821 16.731 67.9048 17.1969 66.7457 18.1287C65.5866 19.0606 64.7287 20.2821 64.1719 21.7935C63.615 23.3049 63.3366 24.9356 63.3366 26.6856C63.3366 28.4356 63.615 30.0606 64.1719 31.5606C64.7287 33.0606 65.5866 34.2708 66.7457 35.1912C67.9048 36.1117 69.3821 36.5719 71.1775 36.5719Z" fill="#0F0020"/>
<path d="M42.5369 40.1856C40.1733 40.1856 38.0994 39.6231 36.3153 38.4981C34.5426 37.3731 33.1562 35.7992 32.1562 33.7765C31.1676 31.7537 30.6733 29.3901 30.6733 26.6856C30.6733 23.9583 31.1676 21.5776 32.1562 19.5435C33.1562 17.5094 34.5426 15.9299 36.3153 14.8049C38.0994 13.6799 40.1733 13.1174 42.5369 13.1174C44.9006 13.1174 46.9687 13.6799 48.7415 14.8049C50.5256 15.9299 51.9119 17.5094 52.9006 19.5435C53.9006 21.5776 54.4006 23.9583 54.4006 26.6856C54.4006 29.3901 53.9006 31.7537 52.9006 33.7765C51.9119 35.7992 50.5256 37.3731 48.7415 38.4981C46.9687 39.6231 44.9006 40.1856 42.5369 40.1856ZM42.5369 36.5719C44.3324 36.5719 45.8096 36.1117 46.9687 35.1912C48.1278 34.2708 48.9858 33.0606 49.5426 31.5606C50.0994 30.0606 50.3778 28.4356 50.3778 26.6856C50.3778 24.9356 50.0994 23.3049 49.5426 21.7935C48.9858 20.2821 48.1278 19.0606 46.9687 18.1287C45.8096 17.1969 44.3324 16.731 42.5369 16.731C40.7415 16.731 39.2642 17.1969 38.1051 18.1287C36.946 19.0606 36.0881 20.2821 35.5312 21.7935C34.9744 23.3049 34.696 24.9356 34.696 26.6856C34.696 28.4356 34.9744 30.0606 35.5312 31.5606C36.0881 33.0606 36.946 34.2708 38.1051 35.1912C39.2642 36.1117 40.7415 36.5719 42.5369 36.5719Z" fill="#0F0020"/>
<path d="M2.22726 39.6401C1.67498 39.6401 1.22726 39.1924 1.22726 38.6401V5.73102C1.22726 5.17873 1.67498 4.73102 2.22726 4.73102H13.4318C15.8636 4.73102 17.8693 5.15147 19.4489 5.99238C21.0284 6.82193 22.2045 7.94125 22.9773 9.35034C23.75 10.7481 24.1364 12.2992 24.1364 14.0037C24.1364 15.5037 23.8693 16.7424 23.3352 17.7197C22.8125 18.6969 22.1193 19.4697 21.2557 20.0378C20.4454 20.578 19.5684 20.9847 18.6246 21.2578C18.5378 21.2829 18.4773 21.3619 18.4773 21.4522C18.4773 21.5579 18.5594 21.645 18.6646 21.6552C19.671 21.7532 20.6824 22.1231 21.6989 22.7651C22.7784 23.4469 23.6818 24.4242 24.4091 25.6969C25.1364 26.9697 25.5 28.5265 25.5 30.3674C25.5 32.1174 25.1023 33.6912 24.3068 35.089C23.5114 36.4867 22.2557 37.5947 20.5398 38.4128C18.8239 39.231 16.5909 39.6401 13.8409 39.6401H2.22726ZM5.45454 34.8901C5.45454 35.4424 5.90225 35.8901 6.45454 35.8901H13.8409C16.6023 35.8901 18.5625 35.356 19.7216 34.2878C20.892 33.2083 21.4773 31.9015 21.4773 30.3674C21.4773 29.1856 21.1761 28.0947 20.5739 27.0947C19.9716 26.0833 19.1136 25.2765 18 24.6742C16.8864 24.0606 15.5682 23.7537 14.0454 23.7537H6.45454C5.90225 23.7537 5.45454 24.2015 5.45454 24.7537V34.8901ZM5.45454 19.0719C5.45454 19.6242 5.90225 20.0719 6.45454 20.0719H13.2954C14.5682 20.0719 15.7159 19.8219 16.7386 19.3219C17.7727 18.8219 18.5909 18.1174 19.1932 17.2083C19.8068 16.2992 20.1136 15.231 20.1136 14.0037C20.1136 12.4697 19.5795 11.1685 18.5114 10.1003C17.4432 9.02079 15.75 8.48102 13.4318 8.48102H6.45454C5.90225 8.48102 5.45454 8.92873 5.45454 9.48102V19.0719Z" fill="#0F0020"/>
<path d="M6 45.731C5.44772 45.731 5 46.1787 5 46.731V48.481C5 49.0333 5.44772 49.481 6 49.481H8V52.4363C8 53.2955 6.98808 53.7546 6.3415 53.1889L0.860087 48.3927C0.40476 47.9942 0.40476 47.2859 0.860088 46.8875L6.3415 42.0913C6.98808 41.5255 8 41.9847 8 42.8438V45.731H6Z" fill="#57DDFF"/>
<path d="M6 49.481C5.44772 49.481 5 49.0333 5 48.481V46.731C5 46.1787 5.44772 45.731 6 45.731H8V49.481H6Z" fill="#57DDFF"/>
<path d="M116.79 48.481C116.79 49.0333 116.342 49.481 115.79 49.481H8V45.731H115.79C116.342 45.731 116.79 46.1787 116.79 46.731V48.481Z" fill="#57DDFF"/>
</svg>
