<svg width="31" height="30" viewBox="0 0 31 30" fill="none" xmlns="http://www.w3.org/2000/svg">
<mask id="path-1-inside-1_21_586" fill="white">
<path d="M18.4653 25.07H26.8219V27.1591H18.4653V25.07ZM18.4653 20.8917H31.0002V22.9808H18.4653V20.8917ZM18.4653 16.7134H31.0002V18.8025H18.4653V16.7134Z"/>
</mask>
<path d="M18.4653 25.07V22.9808H16.3762V25.07H18.4653ZM26.8219 25.07H28.9111V22.9808H26.8219V25.07ZM26.8219 27.1591V29.2483H28.9111V27.1591H26.8219ZM18.4653 27.1591H16.3762V29.2483H18.4653V27.1591ZM18.4653 20.8917V18.8025H16.3762V20.8917H18.4653ZM31.0002 20.8917H33.0894V18.8025H31.0002V20.8917ZM31.0002 22.9808V25.07H33.0894V22.9808H31.0002ZM18.4653 22.9808H16.3762V25.07H18.4653V22.9808ZM18.4653 16.7134V14.6242H16.3762V16.7134H18.4653ZM31.0002 16.7134H33.0894V14.6242H31.0002V16.7134ZM31.0002 18.8025V20.8917H33.0894V18.8025H31.0002ZM18.4653 18.8025H16.3762V20.8917H18.4653V18.8025ZM18.4653 25.07V27.1591H26.8219V25.07V22.9808H18.4653V25.07ZM26.8219 25.07H24.7328V27.1591H26.8219H28.9111V25.07H26.8219ZM26.8219 27.1591V25.07H18.4653V27.1591V29.2483H26.8219V27.1591ZM18.4653 27.1591H20.5545V25.07H18.4653H16.3762V27.1591H18.4653ZM18.4653 20.8917V22.9808H31.0002V20.8917V18.8025H18.4653V20.8917ZM31.0002 20.8917H28.9111V22.9808H31.0002H33.0894V20.8917H31.0002ZM31.0002 22.9808V20.8917H18.4653V22.9808V25.07H31.0002V22.9808ZM18.4653 22.9808H20.5545V20.8917H18.4653H16.3762V22.9808H18.4653ZM18.4653 16.7134V18.8025H31.0002V16.7134V14.6242H18.4653V16.7134ZM31.0002 16.7134H28.9111V18.8025H31.0002H33.0894V16.7134H31.0002ZM31.0002 18.8025V16.7134H18.4653V18.8025V20.8917H31.0002V18.8025ZM18.4653 18.8025H20.5545V16.7134H18.4653H16.3762V18.8025H18.4653Z" fill="#000418" mask="url(#path-1-inside-1_21_586)"/>
<path d="M9.41699 17.9189L4.76074 13.3779L3.24512 11.9004H3.24414L9.41699 17.9189ZM9.41699 17.9189H9.41797L9.80957 18.3008L9.41699 17.9189ZM12.5615 10.0898L15.4395 4.25781L16.376 2.36035L17.3125 4.25781L20.1904 10.0898H20.1914L16.376 2.35938L12.5615 10.0898ZM12.5615 10.0898L12.3174 10.582L12.5615 10.0898ZM11.7754 10.6611L5.33984 11.5967L4.04297 11.7842L11.7744 10.6611L11.8965 10.6436L11.7754 10.6611Z" stroke="#000418" stroke-width="2.08915"/>
</svg>
