<svg width="63" height="44" viewBox="0 0 63 44" fill="none" xmlns="http://www.w3.org/2000/svg">
<path d="M31.5 0C39.6112 0 45.99 6.16219 46.8818 14.0273C48.5969 14.3048 50.2053 15.0403 51.537 16.1561C52.8687 17.2719 53.8744 18.7267 54.4478 20.3667C59.2909 21.7626 63 26.082 63 31.5C63 38.0441 57.7316 43.3125 51.1875 43.3125H11.8125C5.26838 43.3125 0 38.0441 0 31.5C0 28.035 1.68328 24.9323 4.12256 22.7627C4.57931 15.8445 10.0977 10.3241 17.0415 9.96581C19.4119 4.19934 24.8496 0 31.5 0ZM31.5 3.9375C26.0623 3.9375 21.7153 7.42219 20.1797 12.3637L19.7466 13.7812H17.7188C12.2948 13.7812 7.875 18.2011 7.875 23.625V24.6094L7.07569 25.2256C6.11099 25.9649 5.32712 26.9141 4.78343 28.0011C4.23973 29.0882 3.95046 30.2846 3.9375 31.5C3.9375 35.9809 7.33162 39.375 11.8125 39.375H51.1875C55.6684 39.375 59.0625 35.9809 59.0625 31.5C59.0625 27.5231 56.2078 24.4361 52.605 23.8101L51.3115 23.564L51.0654 22.2685C50.4748 19.6166 48.1241 17.7188 45.2812 17.7188H43.3125V15.75C43.3125 9.11531 38.1347 3.9375 31.5 3.9375ZM31.5 14.9507L32.9175 16.3032L40.7925 24.1782L37.9575 27.0132L33.4688 22.5166V35.4375H29.5312V22.5166L25.0425 27.0093L22.2075 24.1743L30.0825 16.2993L31.5 14.9507Z" fill="#6B6E79"/>
</svg>
